<svg xmlns="http://www.w3.org/2000/svg" xmlns:xlink="http://www.w3.org/1999/xlink" width="500" zoomAndPan="magnify" viewBox="0 0 375 374.999991" height="500" preserveAspectRatio="xMidYMid meet" version="1.0"><defs><g/></defs><rect x="-37.5" width="450" fill="#ffffff" y="-37.499999" height="449.999989" fill-opacity="1"/><rect x="-37.5" width="450" fill="#ffffff" y="-37.499999" height="449.999989" fill-opacity="1"/><g fill="#000000" fill-opacity="1"><g transform="translate(99.547487, 283.124981)"><g><path d="M 108.433594 -188.914062 C 108.433594 -191.320312 106.984375 -192.769531 104.578125 -192.769531 L 15.902344 -192.769531 C 13.253906 -192.769531 12.046875 -191.320312 12.046875 -188.914062 L 12.046875 -3.855469 C 12.046875 -1.445312 13.253906 0 15.902344 0 L 40.964844 0 C 43.371094 0 44.820312 -1.445312 44.820312 -3.855469 L 44.820312 -80.722656 L 90.117188 -80.722656 C 92.527344 -80.722656 93.972656 -81.925781 93.972656 -84.578125 L 93.972656 -108.671875 C 93.972656 -111.082031 92.527344 -112.527344 90.117188 -112.527344 L 44.820312 -112.527344 L 44.820312 -160.960938 L 104.578125 -160.960938 C 106.984375 -160.960938 108.433594 -162.40625 108.433594 -164.816406 Z M 108.433594 -188.914062 "/></g></g></g><g fill="#000000" fill-opacity="1"><g transform="translate(219.786294, 283.124981)"><g><path d="M 12.046875 -165.78125 C 12.046875 -162.648438 13.734375 -160.960938 16.867188 -160.960938 L 22.890625 -160.960938 L 13.253906 -139.757812 C 12.53125 -138.070312 13.253906 -136.867188 15.179688 -136.867188 L 26.023438 -136.867188 C 27.46875 -136.867188 28.191406 -137.347656 28.914062 -138.550781 L 41.925781 -158.3125 C 43.132812 -160.238281 43.613281 -161.925781 43.613281 -164.335938 L 43.613281 -187.949219 C 43.613281 -191.082031 41.925781 -192.769531 38.792969 -192.769531 L 16.867188 -192.769531 C 13.734375 -192.769531 12.046875 -191.082031 12.046875 -187.949219 Z M 12.046875 -165.78125 "/></g></g></g></svg>